<?xml version="1.0" standalone="no"?><!DOCTYPE svg PUBLIC "-//W3C//DTD SVG 1.1//EN" "http://www.w3.org/Graphics/SVG/1.1/DTD/svg11.dtd"><svg class="icon" width="200px" height="200.00px" viewBox="0 0 1024 1024" version="1.1" xmlns="http://www.w3.org/2000/svg"><path fill="#333333" d="M512 64C264.6 64 64 264.6 64 512s200.6 448 448 448 448-200.6 448-448S759.4 64 512 64z m392 448c0 98-36.4 187.5-96.1 256.3L255.7 216.1C324.5 156.4 414 120 512 120c216.1 0 392 175.9 392 392z m-784 0c0-98 36.4-187.5 96.1-256.3l552.2 552.2C699.5 867.6 610 904 512 904c-216.1 0-392-175.9-392-392z" /></svg>